<svg width="120" height="30" viewBox="0 0 120 30" xmlns="http://www.w3.org/2000/svg"><title>logo-unicef</title><g id="EVS_Thanks_share" fill="none" fill-rule="evenodd" transform="translate(-581 -617)"><g id="Group-4" transform="translate(581 617)" fill="#FFF"><g id="Page-1"><path d="M35.478 2.973V1.15h3.758v3.648h-3.758V2.973zm82.11 4.59c-.763-.682-1.487-2.148-1.808-3.66-.214-1.005-.208-1.01.438-.343.633.654 1.257 1.572 1.48 2.177.165.444.248 1.423.154 1.792l-.057.22-.206-.185zM88.916 7.46c-.079-.544-.003-1.276.183-1.751.285-.735.583-1.178 1.323-1.971l.712-.764-.04.344c-.066.553-.35 1.609-.591 2.19-.324.782-.605 1.241-1.1 1.795l-.438.49-.049-.333zM117.05 9.9c-.758-.805-1.804-2.647-2.149-3.787-.087-.288-.149-.533-.137-.546.043-.046 1.006.672 1.376 1.026.472.45.921 1.1 1.13 1.637.198.509.336 1.534.25 1.866l-.06.238-.41-.434zm-27.8.16c-.092-.514.098-1.415.447-2.124.334-.677.971-1.367 1.779-1.927.318-.22.594-.386.611-.368.07.072-.392 1.238-.772 1.951-.61 1.148-1.328 2.158-1.8 2.534l-.22.175-.044-.242zm-1.023 2.087c-.672-.95-.953-2.277-.799-3.773.077-.742.327-1.852.493-2.182.091-.182.094-.177.26.373.329 1.085.506 2.511.506 4.067 0 .898-.102 1.808-.204 1.808-.026 0-.142-.132-.256-.293zm29.934-.144c-.061-.372-.075-.917-.048-1.885.048-1.742.237-3.017.565-3.817l.122-.298.2.654c.442 1.448.508 3.058.17 4.165-.134.443-.501 1.174-.738 1.472l-.185.233-.086-.524zm-.955 2.475c-.737-1.198-1.492-3.64-1.484-4.803l.004-.436.507.56c.59.65 1.07 1.443 1.312 2.166.283.845.281 2.012-.005 2.712l-.085.207-.25-.406zm-27.942.33a3.886 3.886 0 0 1-.142-.486c-.134-.536-.135-1.458-.004-1.988.222-.898.83-1.948 1.552-2.682l.407-.413-.04.62c-.075 1.145-.518 2.68-1.164 4.026-.338.704-.55 1.025-.609.923zm28.236 1.977c0-.355.258-1.397.556-2.246.513-1.458 1.718-3.755 1.907-3.633.091.06.004 2.054-.115 2.618-.211 1.005-.64 1.926-1.205 2.586-.232.271-1.008.942-1.09.942-.03 0-.053-.12-.053-.267zm-28.714-.041c-.557-.433-1.05-1.069-1.387-1.791-.43-.92-.564-1.569-.605-2.943-.02-.645-.01-1.153.022-1.153.23.005 1.42 2.3 1.9 3.673.424 1.206.693 2.524.515 2.521-.027 0-.228-.139-.445-.307zm27.15 1.85c-.318-.78-.51-2.474-.465-4.105.018-.627.07-1.263.12-1.444l.089-.325.188.29c.869 1.338 1.256 2.91 1.012 4.109-.107.527-.448 1.355-.677 1.646l-.13.164-.137-.336zM90.43 18.53a5.526 5.526 0 0 1-.418-.892c-.146-.421-.167-.592-.165-1.343.002-.786.02-.917.215-1.515.199-.611.68-1.593.924-1.883.102-.121.112-.113.196.172.307 1.041.064 4.72-.37 5.603l-.131.268-.251-.41zm24.692 2.923c.333-.915 1.51-2.549 2.799-3.887.793-.824 1.58-1.477 1.667-1.385.07.073-.31 1.293-.579 1.852-.57 1.192-1.418 2.278-2.278 2.919-.408.304-1.218.725-1.556.808l-.181.045.128-.352zm-24.023.11c-.693-.316-1.158-.646-1.739-1.231a7.95 7.95 0 0 1-1.772-2.688c-.225-.548-.454-1.403-.393-1.467.066-.068.89.584 1.45 1.148 1.312 1.318 2.637 3.15 3.029 4.185.137.363.11.365-.575.053zm21.958.863c-.153-.999.91-4.723 1.63-5.711l.171-.234.073.2c.293.804.405 2.29.236 3.125-.17.841-.503 1.462-1.124 2.1-.295.302-.629.604-.74.67l-.204.119-.042-.27zm-19.739.029a4.321 4.321 0 0 1-1.322-1.54c-.38-.774-.44-1.077-.44-2.176 0-.788.027-1.08.155-1.6.085-.351.175-.638.198-.638.024 0 .14.155.26.344.651 1.04 1.535 4.072 1.54 5.284 0 .28-.01.521-.025.536-.015.016-.18-.079-.366-.21zm13.498-21.146c.117-.155.124-.194.044-.241-.248-.145-2.151-.586-2.151-.498 0 .01.286.177.636.372.35.195.741.429.868.519.26.184.371.157.603-.152zm-6.24.126c.152-.109.513-.328.803-.487.643-.353.733-.434.427-.38-.534.094-1.247.263-1.639.389l-.42.135.252.27c.14.148.264.27.277.27.013 0 .149-.089.3-.197zm5.063.807c.214-.12.388-.244.388-.277 0-.135-1.673-1.088-1.756-1-.02.02.163.325.407.679.243.353.457.68.474.728.044.116.045.116.487-.13zm-3.815-.249c.165-.256.394-.596.51-.757.116-.161.177-.293.137-.293-.223 0-1.805.942-1.747 1.04.04.067.69.473.76.474.023 0 .175-.208.34-.464zm2.571.729c.173-.04.314-.102.314-.14 0-.09-.609-1.005-.891-1.339l-.225-.265-.002.95-.003.949.247-.042c.136-.023.388-.074.56-.113zm-1.269-.746c0-.492-.024-.895-.053-.895-.03 0-.125.1-.213.224-.485.685-.855 1.243-.855 1.293 0 .049.157.093.825.23.304.062.296.083.296-.852zm6.227 1.324c.287-.217.534-.433.548-.479.035-.113-1.151-.918-1.87-1.27l-.573-.28-.29.33-.291.33.217.178c.47.382 1.23 1.113 1.4 1.344.097.134.213.243.257.242.043 0 .314-.178.602-.395zm-2.42 1.323c.711-.279 1.336-.596 1.336-.678 0-.096-.914-1.014-1.404-1.408l-.371-.299-.184.136a4.785 4.785 0 0 1-.48.29 4.116 4.116 0 0 0-.323.18c-.038.035.873 1.941.93 1.949.027.003.25-.073.495-.17zm-1.69.48c.304-.06.59-.132.638-.16.064-.037-.015-.255-.316-.868-.49-1.002-.504-1.02-.72-.96a9.224 9.224 0 0 1-.697.129l-.527.08-.019.989-.018.988.554-.045c.304-.024.801-.093 1.105-.153zm6.606.361l.383-.255-.298-.395a15.31 15.31 0 0 0-.927-1.048c-.474-.492-.651-.636-.719-.585-.523.4-1.08.812-1.152.855-.068.04.013.21.336.7.234.356.537.857.673 1.114l.247.467.538-.299c.295-.164.709-.413.92-.554zM99.334 20.96c.254-.096.774-.3 1.155-.454.948-.38 1.744-.614 2.378-.697.643-.084.833-.172 1.03-.478.178-.275.191-.568.047-1.012-.058-.177-.143-.684-.19-1.126-.046-.443-.135-.918-.197-1.055-.124-.271-.503-.658-1.144-1.17-.554-.441-.687-.671-.654-1.136.02-.285.067-.407.216-.57.145-.158.2-.295.226-.567.03-.318.053-.361.199-.382.267-.039.33-.14.33-.536 0-.344.01-.37.156-.37.251 0 .348-.172.244-.436-.234-.595-.153-.802.316-.804.417-.002 1.128-.166 1.436-.332.14-.076.566-.458.947-.85 1.006-1.034 1.696-1.362 2.87-1.363.69-.001 1.184.117 1.762.42 1.523.801 2.58 2.098 2.954 3.625.177.721.175 1.932-.004 2.672-.232.96-.53 1.493-1.245 2.231-1.004 1.036-1.82 1.447-2.936 1.479-.733.021-.789.075-.747.724.046.705.456 1.37 1.155 1.872.346.249.33.257 1.19-.598 2.428-2.412 3.677-5.792 3.386-9.159a12.213 12.213 0 0 0-1.378-4.656c-.158-.293-.312-.55-.341-.569-.03-.019-.2.062-.377.18-.177.117-.59.368-.916.556-.326.189-.601.35-.61.359-.01.008.055.189.145.4l.163.385-.278-.129c-.152-.07-.323-.205-.378-.299-.078-.131-.127-.155-.213-.105-.073.042-.265.033-.557-.03-.37-.077-.416-.101-.272-.139.096-.025.313-.108.483-.183l.307-.138-.214-.396c-.273-.507-.96-1.565-1.087-1.675-.08-.068-.206-.031-.672.198a14.2 14.2 0 0 1-.97.433 5.42 5.42 0 0 0-.42.17c-.012.012.117.46.287.994.171.535.298.986.283 1.002a.774.774 0 0 1-.222.07l-.193.04-.302-.952c-.35-1.1-.212-1.016-1.346-.827-.362.06-.86.13-1.104.153l-.445.043V8.04l.51-.042c.282-.023.785-.071 1.119-.106.334-.036.673-.064.753-.064h.146l-.16.178c-.262.293-.38.328-1.38.403l-.955.072-.02.396-.02.396h-.455V5.78l-.346-.043a5.91 5.91 0 0 0-.554-.044c-.167 0-.234-.048-.343-.24l-.136-.24.69.043.69.044v-.976c0-.723-.022-.983-.083-1a10.81 10.81 0 0 0-.544-.103c-.254-.043-.54-.097-.637-.118-.164-.038-.196 0-.51.603-.184.354-.344.673-.356.708-.022.065-.37-.164-.374-.245-.001-.024.145-.318.324-.654.234-.438.304-.626.248-.664-.044-.03-.282-.179-.529-.332l-.45-.278-.619.525c-.616.523-.621.526-.898.469l-.278-.058.704-.618c.388-.34.698-.637.688-.662a3.418 3.418 0 0 0-.269-.333l-.252-.29-.341.15c-1.276.564-2.8 1.73-3.755 2.873-1.464 1.752-2.462 4.093-2.65 6.214-.022.246-.054.564-.071.706-.018.147-.003.258.034.258.036 0 .28-.173.541-.383.261-.211.685-.51.94-.663.998-.6 1.078-.8.829-2.052-.146-.733-.168-1.533-.059-2.079A3.228 3.228 0 0 1 96.87 3.9c.355-.124.53-.143 1.113-.12.576.024.778.065 1.197.238 1.024.425 2.006 1.269 2.43 2.09.215.415.23.488.23 1.065 0 .692-.119 1.047-.591 1.761-.244.37-.246.379-.204.87l.042.496-.2.108c-.154.083-.2.154-.2.31 0 .11-.042.225-.093.256-.05.03-.103.132-.115.227-.016.116-.07.179-.172.194-.081.012-.224.126-.317.253-.302.413-.654.464-1.593.229-.579-.145-.62-.146-.84-.038-.311.156-.338.33-.178 1.168.168.876.407 2.643.407 3.009 0 .68.299.87 1.582 1.004l.923.097.378-.277c.326-.238.418-.273.676-.256.267.019.296.037.277.177-.02.15-.007.154.332.113.28-.035.37-.02.44.067.135.17.06.788-.15 1.235-.298.637-.758.83-1.512.632-.397-.104-.482-.104-.95-.01-1.075.219-1.522.277-2.136.277-.549 0-.681-.024-.977-.177l-.342-.177-.103.165a2.039 2.039 0 0 0-.282.967c-.002.282.013.302.561.758.31.258.629.49.709.517.08.027.486.04.903.029.617-.017.845-.053 1.22-.197zm2.27 2.53c-4.603-.779-8.244-4.329-9.286-9.054-.223-1.01-.291-1.862-.248-3.09.065-1.86.371-3.116 1.168-4.792.252-.53.659-1.258.904-1.617.55-.806 1.71-2.039 2.456-2.611 2.696-2.068 6.02-2.793 9.294-2.028.995.233 1.508.427 2.54.961 3.115 1.612 5.285 4.563 6.044 8.22.133.637.15.916.15 2.341 0 1.777-.077 2.355-.495 3.683-.273.868-1.032 2.426-1.56 3.201-.573.842-1.79 2.11-2.588 2.7a11.93 11.93 0 0 1-4.32 1.985c-.852.193-3.174.251-4.059.101zm7.073 1.223c-.178-.035-.155-.168.103-.605.461-.778 3.836-3.916 4.012-3.732.065.068-.11 1.014-.31 1.668-.348 1.146-.928 1.926-1.741 2.343-.59.303-1.478.443-2.064.326zm-11.782-.027c-.973-.146-1.824-.84-2.31-1.885-.38-.82-.764-2.444-.577-2.444.036 0 .27.16.52.357 1.456 1.142 3.248 2.947 3.542 3.566l.18.379-.15.045c-.206.061-.73.054-1.205-.018zm15.494.375a92.65 92.65 0 0 0-.545-.063l-.347-.039.114-.202c.154-.271.78-.792 1.61-1.34.788-.52 2.823-1.598 3.348-1.773.472-.157.864-.22.864-.138 0 .113-.764 1.274-1.132 1.722-.709.861-1.776 1.564-2.626 1.729-.456.088-1.028.134-1.286.104zm-18.824-.027c-.619-.073-.958-.18-1.518-.484-.913-.494-1.509-1.102-2.32-2.367-.425-.662-.437-.692-.285-.712.253-.034 1.276.358 2.223.854 1.592.833 2.808 1.659 3.356 2.28l.287.324-.229.046a5.67 5.67 0 0 1-1.514.059zm-17.422-6.071l-.017-7.66-1.434-.018-1.434-.018V8.999l1.434-.018 1.434-.019.037-2.41c.042-2.668.06-2.804.5-3.744.283-.605.983-1.383 1.541-1.712.2-.118.63-.308.956-.42 1.282-.448 2.64-.46 4.367-.042.148.035.148.041.148 1.415v1.38l-.313-.052c-.172-.028-.744-.052-1.27-.053-1.19-.003-1.751.146-2.21.588-.523.503-.558.7-.558 3.056v2.029h3.889v2.272h-3.889V26.62h-3.165l-.016-7.658zm-40.401-1.188V8.928h3.23V26.62h-3.23v-8.846zm-17.802.034v-8.88h3.099v1.308c0 .72.025 1.308.056 1.308s.164-.182.296-.404c.676-1.144 1.806-2 3.255-2.466.534-.172.67-.187 1.733-.19.883 0 1.286.029 1.715.126 2.57.583 4.12 2.126 4.517 4.497.082.494.098 1.638.098 7.085v6.497h-3.165v-5.834c0-6.318-.017-6.674-.357-7.615-.53-1.473-1.737-2.247-3.5-2.247-1.342 0-2.272.404-3.236 1.408-.514.534-.628.696-.803 1.14-.487 1.238-.54 2.043-.542 8.209l-.001 4.939H17.94v-8.88zm51.178-2.34c-.04-1.383-.49-2.623-1.234-3.4-1.419-1.482-3.977-1.618-5.571-.298-.96.794-1.609 2.218-1.695 3.715l-.039.672 4.279-.017 4.279-.018-.019-.654zm-6.047 11.5c-3.145-.589-5.063-2.824-5.672-6.612-.147-.911-.2-2.893-.103-3.86.252-2.516 1.056-4.486 2.405-5.887.623-.648 1.158-1.041 1.931-1.42 2.28-1.115 5.586-.913 7.724.472.673.436 1.484 1.292 1.91 2.015.87 1.48 1.2 2.96 1.2 5.392v1.36l-5.95.017-5.95.018-.022.516c-.011.284.014.81.057 1.17.372 3.141 2.163 4.816 4.86 4.544 1.848-.186 2.848-1.02 3.31-2.759.074-.28.135-.579.135-.665v-.156h3.362v.159c0 .087-.062.415-.137.729-.574 2.367-2.125 4.019-4.43 4.716-1.304.395-3.286.502-4.63.25zm-15.362.09c-2.635-.41-4.296-1.626-5.348-3.914-.577-1.258-.854-2.504-.94-4.226-.23-4.684 1.236-8.085 4.145-9.61 1.122-.59 2.12-.818 3.593-.822 1.679-.005 2.818.339 4.041 1.218 1.32.95 2.233 2.65 2.367 4.404l.04.534h-3.184v-.21c0-.772-.476-2.006-.995-2.578-.965-1.066-2.794-1.303-4.255-.553-.524.27-1.19.942-1.492 1.505-.69 1.287-1.036 3.34-.95 5.622.094 2.508.601 4.165 1.592 5.198.725.755 1.527 1.084 2.638 1.084 1.804 0 3.028-1.035 3.463-2.926.071-.313.13-.669.13-.792v-.223h3.208l-.053.46c-.284 2.462-1.74 4.463-3.89 5.347-.899.37-1.449.47-2.726.492-.652.012-1.275.008-1.384-.01zm-43.417.01c-1.799-.417-3.18-1.69-3.819-3.52-.443-1.266-.423-.91-.45-8.098L0 8.928h3.232l.02 6.178.02 6.18.177.67c.512 1.95 1.572 2.805 3.479 2.805 1.23 0 2.245-.415 3.044-1.246.522-.543.841-1.181 1.078-2.154.345-1.42.362-1.777.362-7.307V8.928h3.231v17.76h-3.098v-1.307c0-.72-.025-1.308-.056-1.308-.03 0-.17.176-.313.392-.784 1.19-2.04 2.075-3.521 2.481-.527.145-.812.177-1.78.198-.841.018-1.271-.003-1.583-.075zm95.033 2.698l-.237-.227.71-.775c.72-.784 1.62-1.547 2.404-2.037.534-.334.51-.309.394-.385-.161-.106-1.063-.4-1.439-.468l-.353-.064-.324.301c-.677.628-1.286.808-2.728.809-1.348 0-2.366-.195-3.758-.72-.59-.223-.591-.225-.395-.308.263-.112 1.582-.418 2.385-.554.876-.147 3.239-.204 4.117-.097.954.115 1.805.307 2.61.587l.686.24.643-.233c.749-.272 1.672-.48 2.642-.596.88-.105 3.23-.045 4.124.105.813.136 2.108.435 2.373.548.196.083.195.085-.395.308-1.385.523-2.403.718-3.758.719-1.436.001-1.99-.161-2.738-.803l-.362-.312-.33.069c-.41.085-1.284.38-1.416.478-.063.047-.073.084-.026.104.182.08 1.423.975 1.82 1.313.554.473 1.635 1.647 1.635 1.777 0 .138-.43.463-.577.437-.068-.013-.355-.296-.638-.629-.755-.888-1.905-1.91-2.758-2.45l-.248-.157-.345.222c-.89.571-2.182 1.75-2.852 2.604-.387.494-.52.524-.866.194z" id="logo-unicef"/></g></g></g></svg>